HIERARCHY
ROOT reference
{
  OFFSET 0 0 0
  CHANNELS 6 Xposition Yposition Zposition Zrotation Xrotation Yrotation
  JOINT Hips
  {
    OFFSET 346.547 88.4868 223.89
    CHANNELS 3 Zrotation Xrotation Yrotation
    JOINT RightUpLeg
    {
      OFFSET -9.27468 -1.51611 -0.00175448
      CHANNELS 3 Zrotation Xrotation Yrotation
      JOINT RightLeg
      {
        OFFSET -0.00464511 -41.8738 0.0184652
        CHANNELS 3 Zrotation Xrotation Yrotation
        JOINT RightFoot
        {
          OFFSET -0.626239 -42.3044 -0.171503
          CHANNELS 3 Zrotation Xrotation Yrotation
          End Site
          {
            OFFSET 0 -7.69 17.5
          }
        }
      }
    }
    JOINT LeftUpLeg
    {
      OFFSET 9.30083 -1.68454 -0.0454748
      CHANNELS 3 Zrotation Xrotation Yrotation
      JOINT LeftLeg
      {
        OFFSET 0.0692631 -41.8513 -0.097029
        CHANNELS 3 Zrotation Xrotation Yrotation
        JOINT LeftFoot
        {
          OFFSET 0.520945 -41.523 0.446349
          CHANNELS 3 Zrotation Xrotation Yrotation
          End Site
          {
            OFFSET 0 -7.69 17.5
          }
        }
      }
    }
    JOINT Spine
    {
      OFFSET 0.0770133 14.2992 0.0590021
      CHANNELS 3 Zrotation Xrotation Yrotation
      JOINT Spine1
      {
        OFFSET 0.0471461 9.71665 0.020973
        CHANNELS 3 Zrotation Xrotation Yrotation
        JOINT Spine2
        {
          OFFSET 0.051283 10.117 0.000913966
          CHANNELS 3 Zrotation Xrotation Yrotation
          JOINT Spine3
          {
            OFFSET 0.0447963 9.71088 0.00221408
            CHANNELS 3 Zrotation Xrotation Yrotation
            JOINT Neck
            {
              OFFSET 0.115655 10.3749 0.0448519
              CHANNELS 3 Zrotation Xrotation Yrotation
              JOINT Head
              {
                OFFSET 0.0937003 9.47807 0.0215077
                CHANNELS 3 Zrotation Xrotation Yrotation
                End Site
                {
                  OFFSET 0 15.95 0
                }
              }
            }
            JOINT RightShoulder
            {
              OFFSET -3.17023 6.91072 -0.0050072
              CHANNELS 3 Zrotation Xrotation Yrotation
              JOINT RightArm
              {
                OFFSET -12.7573 0.00694711 0.0313031
                CHANNELS 3 Zrotation Xrotation Yrotation
                JOINT RightForeArm
                {
                  OFFSET -26.5152 -0.0619338 -0.0331286
                  CHANNELS 3 Zrotation Xrotation Yrotation
                  JOINT RightHand
                  {
                    OFFSET -25.9971 0.0398378 -0.0269922
                    CHANNELS 3 Zrotation Xrotation Yrotation
                    JOINT RightHandThumb1
                    {
                      OFFSET -2.48905 0.190105 3.12053
                      CHANNELS 3 Zrotation Xrotation Yrotation
                      JOINT RightHandThumb2
                      {
                        OFFSET -3.68274 0 0
                        CHANNELS 3 Zrotation Xrotation Yrotation
                        JOINT RightHandThumb3
                        {
                          OFFSET -2.55832 0 0
                          CHANNELS 3 Zrotation Xrotation Yrotation
                          End Site
                          {
                            OFFSET -2.194 0 0
                          }
                        }
                      }
                    }
                    JOINT RightInHandIndex
                    {
                      OFFSET -3.22368 0.508421 1.97842
                      CHANNELS 3 Zrotation Xrotation Yrotation
                      JOINT RightHandIndex1
                      {
                        OFFSET -5.21684 -0.091368 0.999158
                        CHANNELS 3 Zrotation Xrotation Yrotation
                        JOINT RightHandIndex2
                        {
                          OFFSET -3.61937 0 0
                          CHANNELS 3 Zrotation Xrotation Yrotation
                          JOINT RightHandIndex3
                          {
                            OFFSET -2.0521 0 0
                            CHANNELS 3 Zrotation Xrotation Yrotation
                            End Site
                            {
                              OFFSET -1.805 0 0
                            }
                          }
                        }
                      }
                    }
                    JOINT RightInHandMiddle
                    {
                      OFFSET -3.38211 0.517263 0.756737
                      CHANNELS 3 Zrotation Xrotation Yrotation
                      JOINT RightHandMiddle1
                      {
                        OFFSET -5.17411 -0.084 0.313895
                        CHANNELS 3 Zrotation Xrotation Yrotation
                        JOINT RightHandMiddle2
                        {
                          OFFSET -3.94947 0 0
                          CHANNELS 3 Zrotation Xrotation Yrotation
                          JOINT RightHandMiddle3
                          {
                            OFFSET -2.47579 0 0
                            CHANNELS 3 Zrotation Xrotation Yrotation
                            End Site
                            {
                              OFFSET -1.975 0 0
                            }
                          }
                        }
                      }
                    }
                    JOINT RightInHandRing
                    {
                      OFFSET -3.36516 0.537895 -0.128947
                      CHANNELS 3 Zrotation Xrotation Yrotation
                      JOINT RightHandRing1
                      {
                        OFFSET -4.63474 -0.022105 -0.478947
                        CHANNELS 3 Zrotation Xrotation Yrotation
                        JOINT RightHandRing2
                        {
                          OFFSET -3.44238 0 0
                          CHANNELS 3 Zrotation Xrotation Yrotation
                          JOINT RightHandRing3
                          {
                            OFFSET -2.3881 0 0
                            CHANNELS 3 Zrotation Xrotation Yrotation
                            End Site
                            {
                              OFFSET -1.857 0 0
                            }
                          }
                        }
                      }
                    }
                    JOINT RightInHandPinky
                    {
                      OFFSET -3.16105 0.469368 -1.20179
                      CHANNELS 3 Zrotation Xrotation Yrotation
                      JOINT RightHandPinky1
                      {
                        OFFSET -4.14105 -0.022105 -1.09053
                        CHANNELS 3 Zrotation Xrotation Yrotation
                        JOINT RightHandPinky2
                        {
                          OFFSET -2.75653 0 0
                          CHANNELS 3 Zrotation Xrotation Yrotation
                          JOINT RightHandPinky3
                          {
                            OFFSET -1.74189 0 0
                            CHANNELS 3 Zrotation Xrotation Yrotation
                            End Site
                            {
                              OFFSET -1.645 0 0
                            }
                          }
                        }
                      }
                    }
                  }
                }
              }
            }
            JOINT LeftShoulder
            {
              OFFSET 3.25178 6.92057 -0.0384945
              CHANNELS 3 Zrotation Xrotation Yrotation
              JOINT LeftArm
              {
                OFFSET 12.8462 -0.0383255 -0.0637898
                CHANNELS 3 Zrotation Xrotation Yrotation
                JOINT LeftForeArm
                {
                  OFFSET 26.4888 -0.0608964 -0.0673835
                  CHANNELS 3 Zrotation Xrotation Yrotation
                  JOINT LeftHand
                  {
                    OFFSET 25.9932 -0.0402352 -0.0274148
                    CHANNELS 3 Zrotation Xrotation Yrotation
                    JOINT LeftHandThumb1
                    {
                      OFFSET 2.48905 0.190105 3.12053
                      CHANNELS 3 Zrotation Xrotation Yrotation
                      JOINT LeftHandThumb2
                      {
                        OFFSET 3.68274 0 0
                        CHANNELS 3 Zrotation Xrotation Yrotation
                        JOINT LeftHandThumb3
                        {
                          OFFSET 2.55832 0 0
                          CHANNELS 3 Zrotation Xrotation Yrotation
                          End Site
                          {
                            OFFSET 2.194 0 0
                          }
                        }
                      }
                    }
                    JOINT LeftInHandIndex
                    {
                      OFFSET 3.22368 0.508421 1.97842
                      CHANNELS 3 Zrotation Xrotation Yrotation
                      JOINT LeftHandIndex1
                      {
                        OFFSET 5.21684 -0.091368 0.999158
                        CHANNELS 3 Zrotation Xrotation Yrotation
                        JOINT LeftHandIndex2
                        {
                          OFFSET 3.61937 0 0
                          CHANNELS 3 Zrotation Xrotation Yrotation
                          JOINT LeftHandIndex3
                          {
                            OFFSET 2.0521 0 0
                            CHANNELS 3 Zrotation Xrotation Yrotation
                            End Site
                            {
                              OFFSET 1.805 0 0
                            }
                          }
                        }
                      }
                    }
                    JOINT LeftInHandMiddle
                    {
                      OFFSET 3.38211 0.517263 0.756737
                      CHANNELS 3 Zrotation Xrotation Yrotation
                      JOINT LeftHandMiddle1
                      {
                        OFFSET 5.17411 -0.084 0.313895
                        CHANNELS 3 Zrotation Xrotation Yrotation
                        JOINT LeftHandMiddle2
                        {
                          OFFSET 3.94947 0 0
                          CHANNELS 3 Zrotation Xrotation Yrotation
                          JOINT LeftHandMiddle3
                          {
                            OFFSET 2.47579 0 0
                            CHANNELS 3 Zrotation Xrotation Yrotation
                            End Site
                            {
                              OFFSET 1.975 0 0
                            }
                          }
                        }
                      }
                    }
                    JOINT LeftInHandRing
                    {
                      OFFSET 3.36516 0.537895 -0.128947
                      CHANNELS 3 Zrotation Xrotation Yrotation
                      JOINT LeftHandRing1
                      {
                        OFFSET 4.63474 -0.022105 -0.478947
                        CHANNELS 3 Zrotation Xrotation Yrotation
                        JOINT LeftHandRing2
                        {
                          OFFSET 3.44238 0 0
                          CHANNELS 3 Zrotation Xrotation Yrotation
                          JOINT LeftHandRing3
                          {
                            OFFSET 2.3881 0 0
                            CHANNELS 3 Zrotation Xrotation Yrotation
                            End Site
                            {
                              OFFSET 1.857 0 0
                            }
                          }
                        }
                      }
                    }
                    JOINT LeftInHandPinky
                    {
                      OFFSET 3.16105 0.469368 -1.20179
                      CHANNELS 3 Zrotation Xrotation Yrotation
                      JOINT LeftHandPinky1
                      {
                        OFFSET 4.14105 -0.022105 -1.09053
                        CHANNELS 3 Zrotation Xrotation Yrotation
                        JOINT LeftHandPinky2
                        {
                          OFFSET 2.75653 0 0
                          CHANNELS 3 Zrotation Xrotation Yrotation
                          JOINT LeftHandPinky3
                          {
                            OFFSET 1.74189 0 0
                            CHANNELS 3 Zrotation Xrotation Yrotation
                            End Site
                            {
                              OFFSET 1.645 0 0
                            }
                          }
                        }
                      }
                    }
                  }
                }
              }
            }
          }
        }
      }
    }
  }
}
MOTION
Frames: 2
Frame Time: 0.00833333
1.050000000000000000e+03 0.000000000000000000e+00 0.000000000000000000e+00 0.000000000000000000e+00 0.000000000000000000e+00 0.000000000000000000e+00 5.498870535582138785e-01 -3.598213361356128459e-01 -4.202554232122231781e+00 1.046409050023676457e+00 -1.677365693244240674e+00 1.201611870000926174e+00 -2.427583449133503546e-01 2.117060440522271492e-01 4.718816910764653816e-01 2.343199999978775594e-01 -3.856499605083421045e-01 1.279306826812631304e+00 1.495451850368578306e+00 1.229466803430367960e-01 1.653586053273279788e+00 -1.028605054531631424e+00 6.050644161083678085e-01 1.225045007989018941e+00 3.595116702101108785e-03 -6.293623825040057795e-01 1.722479034800247888e+00 -5.473088646886833386e-01 2.042243443310264028e-01 -7.954299064188070645e-01 -1.262788029432068138e-01 6.049933835212195632e-02 -2.182420365253987526e-01 -2.145929994362560933e-01 1.093996887058688028e-01 -3.012691669396918570e-01 -5.028611513559982926e-02 -1.141450572230009661e-02 1.391982976546408679e-01 -8.299116192953848170e-02 3.873841725094556709e-02 1.798299950590486418e+00 -9.214234087481569802e-01 -3.564524556296968516e-01 1.709819166237913635e+00 2.239460350107749242e-01 8.047095300181625888e-01 -5.397993955819817558e-01 3.511424334161006300e-01 -2.074855380327775833e+00 -1.518870419825304907e+00 2.894229611110514355e+00 -3.132296523992519344e-01 1.005211240272494422e+00 -3.254371328061544943e-02 -4.884203637592232639e-01 -1.444336658607142443e+00 0.000000000000000000e+00 0.000000000000000000e+00 0.000000000000000000e+00 -2.960815766150037550e-17 1.976557896892279603e-16 0.000000000000000000e+00 -2.653640542807190883e-17 6.414781378857516642e-17 0.000000000000000000e+00 3.997721611313166569e-18 -9.028637273183043907e-17 9.895589170792683809e-17 0.000000000000000000e+00 0.000000000000000000e+00 0.000000000000000000e+00 0.000000000000000000e+00 7.346082695232815291e-17 -1.398470745322171471e-16 0.000000000000000000e+00 -7.004582648352509985e-17 3.251161590745107000e-17 3.997721611313166569e-18 -9.028637273183043907e-17 9.895589170792683809e-17 0.000000000000000000e+00 1.527803316101605887e-16 7.234434533682971740e-17 0.000000000000000000e+00 7.742462374586690091e-17 -3.980682753054486116e-16 0.000000000000000000e+00 -1.340528438161644855e-16 -2.610111578599748461e-16 3.997721611313166569e-18 -9.028637273183043907e-17 9.895589170792683809e-17 0.000000000000000000e+00 0.000000000000000000e+00 0.000000000000000000e+00 0.000000000000000000e+00 -5.401526791779207751e-17 -4.289023026521216762e-16 0.000000000000000000e+00 -1.145738885798668576e-16 3.219142761824036508e-17 3.997721611313166569e-18 -9.028637273183043907e-17 9.895589170792683809e-17 0.000000000000000000e+00 0.000000000000000000e+00 0.000000000000000000e+00 0.000000000000000000e+00 -3.839723133615297691e-17 1.695201560116569315e-17 0.000000000000000000e+00 6.292656348419780110e-18 -5.717845004672201991e-17 3.406807438415846434e-01 -1.594181261043150499e-01 -9.217667694870037565e-01 1.515880886088414314e+00 1.230601990698030335e+00 -1.074311670712333466e+00 8.009651927626224577e-01 7.756942267114439460e-01 3.360145264262023090e+00 -2.221003138529642484e-02 -6.427287531572944967e-01 4.937337211045011998e-01 0.000000000000000000e+00 0.000000000000000000e+00 0.000000000000000000e+00 1.388530222821506635e-16 -3.136549865332398850e-17 0.000000000000000000e+00 -6.758725439523879954e-17 -1.098767014866658890e-16 0.000000000000000000e+00 1.199339109361354622e-16 -8.080726694794623876e-17 -3.137352980982724109e-17 0.000000000000000000e+00 0.000000000000000000e+00 0.000000000000000000e+00 0.000000000000000000e+00 -1.356538834224996978e-16 8.540223375209359685e-17 0.000000000000000000e+00 7.165073304779423926e-17 2.796100613055847274e-16 1.199339109361354622e-16 -8.080726694794623876e-17 -3.137352980982724109e-17 0.000000000000000000e+00 3.536577996810565483e-17 -1.289375485039471132e-17 0.000000000000000000e+00 -2.435832871225189198e-17 7.328736478599932710e-17 0.000000000000000000e+00 1.208249332354074520e-16 5.532350640714590380e-16 1.199339109361354622e-16 -8.080726694794623876e-17 -3.137352980982724109e-17 0.000000000000000000e+00 0.000000000000000000e+00 0.000000000000000000e+00 0.000000000000000000e+00 -3.255343132607664119e-17 3.127160379649794713e-16 0.000000000000000000e+00 -4.449238100509283119e-17 2.107287693721004424e-16 1.199339109361354622e-16 -8.080726694794623876e-17 -3.137352980982724109e-17 0.000000000000000000e+00 0.000000000000000000e+00 0.000000000000000000e+00 0.000000000000000000e+00 -5.969973412693550211e-17 3.205718255486626868e-16 0.000000000000000000e+00 1.966585865546590508e-17 3.053644005696231403e-17
1.050000000000000000e+03 0.000000000000000000e+00 0.000000000000000000e+00 0.000000000000000000e+00 0.000000000000000000e+00 0.000000000000000000e+00 6.220494600651109707e-01 -3.244672682171678701e-01 -4.772994753428925208e+00 1.135062543048899641e+00 -1.911694665929676518e+00 1.271402447588117823e+00 -2.472024796525483792e-01 2.742040521901474293e-01 4.878362768712372066e-01 3.359541453592154170e-01 -5.983808498186640179e-01 1.299482809673747408e+00 1.682847708982080803e+00 7.037938383404007681e-02 1.789185876374380868e+00 -1.129979722060848957e+00 7.028454586090067124e-01 1.354357641976509541e+00 1.131394826303626644e-01 -6.904272579953865119e-01 2.017026056663677736e+00 -5.496225297733383641e-01 2.069344084778434734e-01 -9.978833057217322278e-01 -1.275666213593343312e-01 6.435189179944966753e-02 -2.688584554972806018e-01 -2.167397488273927753e-01 1.164193718467954053e-01 -3.802773072252323416e-01 -5.472532774791022403e-02 -1.133619709217079108e-02 1.578137608054244190e-01 -9.670112903222860545e-02 4.303644705753573163e-02 2.077980442801848682e+00 -9.888391165878598343e-01 -3.721690012025733463e-01 1.886630157479128655e+00 2.422800637702202664e-01 8.675344116885259638e-01 -6.571458549042503705e-01 5.140899784639838543e-01 -2.357793250053866529e+00 -1.848386543512884117e+00 3.093488411385756365e+00 -2.919318134959782984e-01 1.151689305263857932e+00 -8.319417863349709563e-02 -5.475602973937085949e-01 -1.415220935891305487e+00 0.000000000000000000e+00 0.000000000000000000e+00 0.000000000000000000e+00 -6.593966263873075930e-17 1.846331931418101540e-16 0.000000000000000000e+00 -3.467775521530273538e-17 6.942037990577567529e-17 0.000000000000000000e+00 -1.399144487173929544e-17 -6.719487753534503381e-17 9.198892953937537809e-17 0.000000000000000000e+00 0.000000000000000000e+00 0.000000000000000000e+00 0.000000000000000000e+00 6.673545232257887754e-17 -2.116012300156986301e-16 0.000000000000000000e+00 -6.168506412335773338e-17 -1.217846521784829051e-17 -1.399144487173929544e-17 -6.719487753534503381e-17 9.198892953937537809e-17 0.000000000000000000e+00 1.666412134287695881e-16 1.047758716467976787e-16 0.000000000000000000e+00 4.595316301649061430e-17 -4.173847824805206742e-16 0.000000000000000000e+00 -1.520713562641577619e-16 -2.703840319114872144e-16 -1.399144487173929544e-17 -6.719487753534503381e-17 9.198892953937537809e-17 0.000000000000000000e+00 0.000000000000000000e+00 0.000000000000000000e+00 0.000000000000000000e+00 -6.947031884859939380e-17 -4.429083867648055260e-16 0.000000000000000000e+00 -1.090708407032312984e-16 -2.241750220769718950e-17 -1.399144487173929544e-17 -6.719487753534503381e-17 9.198892953937537809e-17 0.000000000000000000e+00 0.000000000000000000e+00 0.000000000000000000e+00 0.000000000000000000e+00 -5.661316107345980204e-17 -3.723173326740635298e-17 0.000000000000000000e+00 2.238362763791400648e-18 -6.927258399193276098e-17 3.874550702313808159e-01 -2.112880234002432189e-01 -1.016947496268816309e+00 1.666356830065916839e+00 1.483039876339894647e+00 -1.436983237716908945e+00 8.471730143570024296e-01 9.485130398223340364e-01 3.815087524032570343e+00 -8.169197069278766321e-02 -6.493337444561675387e-01 5.692592519597319267e-01 0.000000000000000000e+00 0.000000000000000000e+00 0.000000000000000000e+00 1.099874153592091054e-16 -3.328419065148605940e-17 0.000000000000000000e+00 -7.732131528248261192e-17 -8.235768037849471763e-17 0.000000000000000000e+00 1.115317280193854722e-16 -7.688318590227903414e-17 -2.079327547239050980e-17 0.000000000000000000e+00 0.000000000000000000e+00 0.000000000000000000e+00 0.000000000000000000e+00 -1.143440024836716338e-16 7.411342984455861597e-17 0.000000000000000000e+00 6.528966452312636774e-17 2.562786358429646784e-16 1.115317280193854722e-16 -7.688318590227903414e-17 -2.079327547239050980e-17 0.000000000000000000e+00 2.954796309783925166e-17 5.526318986600670189e-18 0.000000000000000000e+00 -3.154327519989963889e-17 8.238359420335216313e-17 0.000000000000000000e+00 9.267224817354124888e-17 5.033448440691953347e-16 1.115317280193854722e-16 -7.688318590227903414e-17 -2.079327547239050980e-17 0.000000000000000000e+00 0.000000000000000000e+00 0.000000000000000000e+00 0.000000000000000000e+00 -5.223398430770684684e-17 2.734877291408200803e-16 0.000000000000000000e+00 -3.391844488462460683e-17 1.971362579092412845e-16 1.115317280193854722e-16 -7.688318590227903414e-17 -2.079327547239050980e-17 0.000000000000000000e+00 0.000000000000000000e+00 0.000000000000000000e+00 0.000000000000000000e+00 -4.405901006812716256e-17 2.988624067472881027e-16 0.000000000000000000e+00 2.556527532728083946e-17 3.251000604350656997e-17
